<?xml version="1.0" encoding="iso-8859-1"?>
<!-- Generator: Adobe Illustrator 19.0.0, SVG Export Plug-In . SVG Version: 6.00 Build 0)  -->
<svg xmlns="http://www.w3.org/2000/svg" xmlns:xlink="http://www.w3.org/1999/xlink" version="1.1" id="Capa_1" x="0px" y="0px" viewBox="0 0 512 512" style="enable-background:new 0 0 512 512;" xml:space="preserve" width="512px" height="512px">
<g>
	<g>
		<path d="M264.965,59.485C223.391,1.932,50.883,2.019,7.807,58.492C0.175,68.498-0.525,82.181,6.051,92.911    c20.941,34.167,93.83,42.861,130.949,42.861c38.452,0,111.534-9.026,130.247-44.894C272.489,80.83,271.601,68.673,264.965,59.485z    " fill="#e1ab05"/>
	</g>
</g>
<g>
	<g>
		<path d="M137.001,225.972c-48.6,0-104.299-9.8-136.7-33.8c0-0.3-0.3-0.3-0.3-0.3v3.9c-0.001,41.099,71.9,60,136.999,60    c10.201,0,20.4-0.601,30.601-1.5c4.799-11.1,10.499-21.901,17.399-31.8C169.101,224.871,152.902,225.972,137.001,225.972z" fill="#e1ab05"/>
	</g>
</g>
<g>
	<g>
		<path d="M137,285.972c-48.6,0-104.299-9.8-136.7-33.8c0-0.3-0.3-0.3-0.3-0.3v3.9c0,41.099,71.901,60,137,60    c5.099,0,10.499,0,15.601-0.601c0.899-10.199,2.399-20.099,4.799-30C150.501,285.471,143.599,285.972,137,285.972z" fill="#e1ab05"/>
	</g>
</g>
<g>
	<g>
		<path d="M152.601,345.471c-5.101,0.3-10.501,0.5-15.601,0.5c-48.6,0-104.299-9.8-136.7-33.8c0-0.3-0.3-0.3-0.3-0.3v3.9    c0,41.1,71.901,60.001,137,60.001c6.899,0,13.5-0.3,20.4-0.601C154.999,365.571,153.5,355.672,152.601,345.471z" fill="#e1ab05"/>
	</g>
</g>
<g>
	<g>
		<path d="M166.399,404.573c-9.899,0.899-19.799,1.399-29.399,1.399c-48.6,0-104.299-9.8-136.7-33.8c0-0.3-0.3-0.3-0.3-0.3v3.9    c0,41.099,71.901,60,137,60c14.7,0,29.7-0.901,44.099-2.999C175.401,423.772,170.6,414.472,166.399,404.573z" fill="#e1ab05"/>
	</g>
</g>
<g>
	<g>
		<path d="M201.2,459.772c-21,4.2-42.899,6.2-64.2,6.2c-48.6,0-104.599-9.8-137-34.1v3.9c0,39.3,69.8,60,137,60    c33.9,0,64.2-5.099,87.599-13.5C216.2,475.373,208.4,467.873,201.2,459.772z" fill="#e1ab05"/>
	</g>
</g>
<g>
	<g>
		<path d="M271.7,132.172c-32.401,24-86.1,33.8-134.7,33.8c-48.6,0-104.299-9.8-136.7-33.8c0-0.3-0.3-0.3-0.3-0.3v3.9    c0,41.099,71.901,60,137,60c27.9,0,57.001-3.6,80.7-10.8c16.219-14.869,36.024-26.881,54.3-34.2v-18.9    C272,131.872,271.7,131.872,271.7,132.172z" fill="#e1ab05"/>
	</g>
</g>
<g>
	<g>
		<path d="M377,345.772h-45v30h45C396.828,375.772,396.828,345.772,377,345.772z" fill="#e1ab05"/>
	</g>
</g>
<g>
	<g>
		<path d="M377,285.772h-45v30h45C396.828,315.772,396.828,285.772,377,285.772z" fill="#e1ab05"/>
	</g>
</g>
<g>
	<g>
		<path d="M347,165.772c-89.233,0-165,72.76-165,165c0,91.104,74.275,165,165,165c90.981,0,165-74.019,165-165    S437.981,165.772,347,165.772z M377,405.772h-15v15c0,19.773-30,19.854-30,0v-15h-45c-19.773,0-19.854-30,0-30h15v-90h-15    c-19.773,0-19.854-30,0-30h45v-15c0-19.773,30-19.854,30,0v15h15c38.501,0,59.664,45.761,33.296,75    C436.664,360.011,415.501,405.772,377,405.772z" fill="#e1ab05"/>
	</g>
</g>
<g>
</g>
<g>
</g>
<g>
</g>
<g>
</g>
<g>
</g>
<g>
</g>
<g>
</g>
<g>
</g>
<g>
</g>
<g>
</g>
<g>
</g>
<g>
</g>
<g>
</g>
<g>
</g>
<g>
</g>
</svg>
