<?xml version="1.0" encoding="UTF-8"?>
<svg width="370px" height="250px" viewBox="0 0 370 250" version="1.1" xmlns="http://www.w3.org/2000/svg" xmlns:xlink="http://www.w3.org/1999/xlink">
    <!-- Generator: Sketch 46.2 (44496) - http://www.bohemiancoding.com/sketch -->
    <title>Artboard</title>
    <desc>Created with Sketch.</desc>
    <defs></defs>
    <g id="Page-1" stroke="none" stroke-width="1" fill="none" fill-rule="evenodd">
        <g id="Artboard" fill-rule="nonzero">
            <g id="bitcoach-logo-official" transform="translate(2.000000, 2.000000)">
                <path d="M214,96.6 C212.1,97 210.2,97.2 209.2,97.9 C199.1,93.9 191.2,96.8 184.3,99.2 C192,93.3 201.2,90.4 214,96.6 Z" id="Shape" fill="#08235E"></path>
                <path d="M203.9,115.6 C207.8,113.4 214.5,106.5 209.8,104.7 C208.6,104.1 206.9,103.5 207.8,102 C212.3,99.8 215.4,97.9 214,96.6 L208.5,97.5 C210.4,100.1 202.3,101.2 202.3,101.2 C205.6,102.6 204.4,105.8 204.4,105.8 C205.5,106.1 207.3,106.4 208.5,106.4 C210.9,107.2 207.4,111.3 203.9,115.6 Z" id="Shape" fill="#08235E"></path>
                <path d="M200.3,105.6 C193.3,106.3 190.6,106.4 190.1,106 C195.5,102.7 199.5,101.5 203.5,100.9 C203.1,101 203.3,101.1 202.9,101.2 C199.5,102.3 196.1,103.4 195.8,104.8 C195.6,105.2 197.4,105.1 199.4,105.1 C199.8,105.2 199.8,105.6 200.3,105.6 Z" id="Shape" fill="#08235E"></path>
                <path d="M199.3,105.5 L199.3,105.5 C200.3,105.5 201.6,105.4 202.1,105.1 L202.1,105.1 C203,104.2 202.9,102.7 201.9,101.9 L201.9,101.9 C201.8,101.9 201.8,101.8 201.7,101.8 C200.8,101.5 200,101.6 199,102 L199,102 C197.8,103.1 198.1,104.8 199.3,105.5 Z" id="Shape" fill="#08235E"></path>
                <path d="M220.5,101.4 C215.1,100.7 213.1,102.1 211.6,103.1 C213.8,104 218,101.7 222,104.9 C217.9,102.4 210.2,105.3 210.2,105.3 L206.9,103.5 L206.9,101.6 L209.4,100.7 C213.2,100.7 216,99.5 220.5,101.4 Z" id="Shape" fill="#08235E"></path>
                <path d="M214.5,117.4 C211.9,120.8 206.7,129.6 215.7,129.4 C222.6,129.7 224.5,131.8 229.3,129.8 C230,127.4 238.3,127.9 231.7,117.6 C236.6,128.6 226.6,126.3 227.6,128.3 C226.9,125.2 216,124.9 218,128.3 C209.8,128 214,120.7 214.5,117.4 Z" id="Shape" fill="#08235E"></path>
                <path d="M229.3,104.4 C229.6,103.9 229.8,103.9 229.3,101.8 C228.7,101.9 223.6,96.4 222.4,97.9 C222.9,100.2 222.5,102.8 221.1,105.1 C222.3,107.6 224.1,109.7 226.4,111.7 C224.7,109.3 223.2,106.9 222.3,104.8 C223.5,104.6 224,104 223.9,102.1 C224.4,101.6 225.7,101.6 229.3,104.4 Z" id="Shape" fill="#08235E"></path>
                <path d="M222.9,106.6 C225.8,106.4 228.9,104.9 226.7,110.2 L226.9,110.4 C229.8,105.8 229.3,104 223.3,103.9 C221.9,104.2 221.9,105 222.9,106.6 Z" id="Shape" fill="#08235E"></path>
                <path d="M224.8,105.7 C224.8,105.7 225.7,107.6 224.4,108.9 C224,109.4 222.7,106.6 222.7,106.6 L224.8,105.7 Z" id="Shape" fill="#08235E"></path>
                <path d="M123,115.1 C116,131.5 144.2,151 149.3,137.6 C148,157.3 112.6,132.2 123,115.1 Z" id="Shape" fill="#08235E"></path>
                <path d="M139.5,120.4 C135.8,114.1 130.5,112.7 126,115.4 C125,116 124.4,116.9 124,118 C121.4,126.8 128.7,135 137,136.4 C127.3,132.4 125.3,128 127.3,119.2 C127.5,118.5 127.8,117.8 128.3,117.3 C131.3,114.2 134.3,117.7 139.5,120.4 Z" id="Shape" fill="#08235E"></path>
                <path d="M147.1,133.3 C141.5,133.3 138.3,132.4 139.9,128.8 L141.9,124 C142,123.7 142.4,123.7 142.6,124 C144,126.5 142.5,128.5 143.5,129.1 C147.7,132 149,133.3 147.1,133.3 Z" id="Shape" fill="#08235E"></path>
                <path d="M140.3,65.8 C139.5,65.6 138.9,64.9 138.8,64 C138.4,60 138.5,56.3 139.5,53.2 C139.8,52.4 140.5,51.9 141.3,52 C143,52.1 144,52.1 144.7,52.3 C150.4,49.3 159,46.1 171.6,44 C163,37.5 155,35.3 147,36.5 C139.1,37.4 132.8,40.3 127.8,44.6 L145.8,38.4 L149.3,41.5 C147.7,42.2 145.6,43.2 144.2,44.5 L140.5,42.2 L126.2,46.1 C124.8,47.5 123.5,49 122.3,50.6 C121.1,52.2 120.4,54.1 120.1,56 C118,71.8 108.6,77 110.3,83.4 C113.2,90.6 121.4,91.5 130.8,91.1 C133.9,91 137,90.4 139.9,89.2 C146.2,86.7 150.4,82.9 150.4,76.6 C150.4,70 146.7,67.6 140.3,65.8 Z M147.7,38 C154.4,37.3 160.5,38.6 165.6,42.9 C159.3,40.2 154.1,39.3 150.6,40.7 L147.7,38 Z M139.8,43.4 L143.1,45.6 C140,47.8 138.2,54.1 136.8,61.8 C136,55.4 138.1,47.4 139.8,43.4 Z M141.2,73.9 C140.9,76.1 140.1,77.6 139,78.6 C138.6,79 138.1,79.2 137.6,79.3 L118.3,80.1 L134.5,76.9 C136,76.1 137.1,75.4 137.5,74.5 C137.8,73.9 137.6,73.1 137.1,72.6 C131.7,67.4 132.5,62.3 133,57.1 C132.9,62.6 135.3,67.4 140.3,71.7 C141.1,72.4 141.4,73.1 141.2,73.9 Z M146.9,79.5 C146.6,80 146.1,80.4 145.5,80.6 L143,81.6 C146.6,78.6 145,72.5 140,67.3 C146.7,70.5 150.1,74.7 146.9,79.5 Z" id="Shape" fill="#08235E"></path>
                <path d="M243.7,165.5 C244.4,160.1 246.9,156.2 250.8,155.9 C250.8,155.9 250.8,155.9 250.8,155.9 C243.7,150.2 238.3,154.7 238.1,160.3 C238,163.2 238.7,165.5 241.5,166.4 L231.1,164.1 L230.7,165 L242.6,168 L243.7,170.4 L229.8,167 L228,170.9 L244.7,175.2 L245.5,177.4 C253,175 257.6,165.4 251.9,157.4 C248.9,157.2 246.1,160.2 243.7,165.5 Z M249.5,172.5 C248.9,169.8 247.8,167.5 245.8,165.9 C246.2,163.1 249.8,159.4 251.1,159.3 C251.8,159.8 252.3,160.4 252.7,161.2 L249.5,172.5 Z" id="Shape" fill="#08235E"></path>
                <path d="M196.2,63.3 C196.3,63.4 196.4,63.4 196.5,63.3 C196.6,63.3 196.8,63.1 197.2,62.8 C197.5,62.5 197.9,62.2 198.2,61.9 C198.8,61.5 199.2,61.1 199.4,60.7 C199.7,60.4 199.8,60 199.8,59.5 C199.8,59 199.6,58.6 199.3,58.1 C199,57.7 198.7,57.4 198.3,57.2 C197.9,57 197.5,56.9 197,56.9 C196.5,56.9 195.9,57.1 195,57.6 C194.3,58 193.6,58.4 193,58.9 C194,60.2 194.9,61.3 195.6,62.4 C196,63 196.2,63.2 196.2,63.3 Z" id="Shape" fill="#08235E"></path>
                <path d="M259.8,74.4 C259.7,74.1 259.6,73.9 259.5,73.6 C257.8,68.5 254.2,64.5 246.2,63.1 C237.8,62.2 229.2,68 216.5,68.4 C210.9,61.5 204.6,55.6 197,51.4 C197,51.4 197.1,51.5 197.1,51.5 C197.4,51.9 197.7,52.3 197.8,52.8 C198,53.2 198,53.6 198,54 C197.9,54.4 197.7,54.7 197.4,55.1 C198.1,55.1 198.6,55.1 199.1,55.2 C199.7,55.3 200.3,55.6 200.8,56 C201.4,56.4 201.8,56.8 202.2,57.4 C202.7,58 203,58.6 203.1,59.3 C203.2,60 203,60.6 202.6,61.2 C202.4,61.4 202.2,61.7 202,62 C202.7,62.8 203.2,63.5 203.6,64.2 C202.8,64.7 202.1,65.3 201.3,65.9 C201,65.3 200.5,64.6 200,63.8 C199.5,64.2 199,64.7 198.5,65.2 C199.2,66 199.8,66.7 200.2,67.2 C199.1,68.2 198,69.2 196.9,70.3 C196.8,69.7 196.4,69 195.8,68.1 C194.8,69.7 193.9,71.3 193.2,73 C192.9,72.2 192.2,71.2 191.1,70.1 C191.4,69.7 193.2,67.7 193.3,67.5 C193.5,67.2 193.5,66.7 193.5,66.4 C193.5,66.1 193.2,65.6 192.8,65 C190.9,61.9 188.2,58.6 184.9,54.8 C184.4,54.2 184,53.8 183.7,53.7 C183.4,53.6 183.1,53.5 182.8,53.6 C182.4,53.6 180.5,54.9 179.8,55.4 C179.7,55.4 179.6,55.5 179.5,55.5 C178.5,54.6 177.5,53.7 176.4,52.8 C178.4,52 180.4,51.3 182.5,50.7 C181.6,50.1 180.6,49.4 179.7,48.8 C181.1,48.4 182.5,48.1 183.9,47.8 C184.7,48.4 185.6,49 186.4,49.6 C187.1,49.4 187.8,49.3 188.6,49.2 C187.7,48.6 186.7,48 185.8,47.4 C185.9,47.4 186.1,47.4 186.2,47.4 C182,46.2 177.5,45.6 172.6,45.4 C159.3,47.5 148.7,51.2 140.4,56.1 C139.9,58.4 139.9,61.1 140.2,64.3 C140.2,64.5 140.4,64.7 140.6,64.7 C147.3,66.6 151.8,69.4 152.1,76.9 C152.1,83.4 148.3,88 140.6,91 C137.6,92.2 134.4,92.8 131,93 C129.8,93.1 128.6,93.1 127.5,93.1 C122.9,93.1 118.3,92.6 114.8,90.7 C114.3,94.9 113.9,98.9 113.7,102.8 C114.6,105.6 113.7,106.6 113.5,107.9 C113.4,114.4 113.7,120.3 114.7,125.4 C117.3,127.9 116,129.7 115.9,130.7 C116.7,133.5 117.7,137 119.6,138.1 C119.9,142.4 120.1,144 120.9,149.7 C121.1,137.9 121.2,132.7 121.4,131.2 C121.8,130.2 122.3,129.3 122.9,128.5 C120.1,122.4 121.2,118 123.4,114.9 C126.9,111.1 131.2,112.1 133.8,112.6 L133.8,112.6 C136.8,113.2 141.7,117.1 143.9,118.4 C144.2,117.7 143.8,115.6 143.6,114.9 C149.4,119 152,127.4 152.2,135.6 C153.1,135.6 153.8,135.2 154.2,134.3 C154.4,135.4 154,136.4 153.2,137.3 C153.7,139.2 153.8,140.9 153.3,142.4 C154.2,142.3 155,141.6 155.9,140.7 C155.1,144.2 153.9,147.4 152.1,150.3 L151.8,157 C153.2,156.8 156.2,159.6 156.9,160.6 C155.5,160.4 152.2,159.5 151.7,160 C155.4,170.1 166.9,177.2 176.3,181.8 C177.5,182.6 180.3,183.6 178.2,184 C184.3,186.2 197.6,188.3 204.8,185 C201.8,182.1 203,181.2 203.5,181.7 C203.8,182 204.1,183.5 204.3,183.2 C205.7,181.4 207.7,180.5 210.2,180.6 C219.3,180.5 229.7,173.9 229.6,173.8 C228.8,173 229.6,171.2 230.7,170.1 C233.7,168.1 230.9,164 230.9,161.8 C230.9,161.3 233,163.3 232.9,162.7 C232.5,158.7 230,154.1 231.6,151.5 C231.9,151 231.9,152.7 232.1,152.5 C233.7,151.8 235.2,149.2 234.8,145.8 C234.7,144.9 234.3,144.3 233.9,143.7 C234.2,144.5 234.4,145.4 234.6,146.4 C233.7,143.1 229.9,143.1 225.4,143.7 C224.1,143.7 220.9,143.9 217.9,144.5 C210.8,145.7 208.9,144.7 208.9,144.7 C215.1,140.5 222.2,139.7 226.5,137.5 C228.7,139.1 230.6,138.9 232.1,138 C233.3,138.8 233.9,139.7 233.8,140.4 C234,140.3 234.2,140 234.1,139.6 C233.9,138.5 231.3,135.8 231,134.9 C230.8,134.4 233.1,136.4 232.9,136 C231.8,133.8 229.8,131.5 227.7,130.9 C226.2,130.9 224.5,130.7 223.2,130.9 C217.8,131.4 213,133.6 210.7,134.7 C210.1,135 214.7,133.9 214.3,134.1 C213.5,134.6 208.6,136.7 208,137.2 C207.1,137.9 206,138.5 204.9,139.1 C202.6,146.3 205,150.6 208,154.4 C201.8,148.5 201.2,144 202.9,139.9 C200.7,140.7 198.6,141.3 197.5,141.7 C197.7,144.6 198.9,147 200.3,149.3 C198.5,147.3 196.1,145.1 195.4,143.4 C179.8,139.1 171.8,131.5 166.6,127.7 C166.7,127.7 166.9,132.1 166.5,131.7 C155.8,123.2 154.7,108 154.8,100.1 C154.8,100.1 154.9,100.1 154.9,100 C157.1,96.1 177.7,84.4 193.6,76.2 C182.7,82.6 171.1,90.6 165.7,95.3 L181.8,95 C198.8,95.1 210.5,89.6 220.5,82.3 C228.6,79.9 229.4,102.1 229.4,102.1 L247.1,99.7 C261,96 265.5,87.8 259.8,74.4 Z M226.1,157.1 C227.1,153 227.5,151.6 229.6,148.4 C229.7,148.2 229.7,148.1 229.8,148.1 C229.7,148.2 229.7,148.3 229.6,148.4 C228.7,150.6 227.4,165.4 227,165.1 C227,165.1 227.1,157.4 227.1,157.4 C226.7,157 225.5,162.6 225.4,162.1 C225.1,159.4 223.7,155.7 223.3,155.9 C224,156 224.8,168.4 224.1,168.6 C224,163.2 222.8,157.1 221.1,150.6 C223.3,152.5 225.1,154.7 226.1,157.1 Z M180.9,90.2 C195.8,89.2 208,83.4 222.4,70.5 L227.5,69.4 C213.1,84.5 197.4,90 180.9,90.2 Z M247,97.6 C254.1,93.7 258.1,88.1 258.3,80.7 C260.3,88.6 256.5,94.2 247,97.6 Z" id="Shape" fill="#08235E"></path>
                <path d="M194.5,52.5 C194.2,52.1 193.8,51.8 193.4,51.6 C193,51.4 192.5,51.2 192.1,51.2 C191.6,51.2 190.8,51.3 189.7,51.6 C189,51.8 188.3,52 187.5,52.3 C188.7,53.7 189.9,55.1 191,56.5 C191.6,56.2 192.2,55.9 192.9,55.6 C193.8,55.2 194.4,54.9 194.7,54.6 C195,54.3 195.1,54 195.1,53.7 C195,53.2 194.8,52.9 194.5,52.5 Z" id="Shape" fill="#08235E"></path>
                <path d="M97,149.2 C91.1,136.3 87.9,122.2 87.9,107.9 C87.9,53.7 132,9.5 186.3,9.5 C240.5,9.5 284.7,53.6 284.7,107.9 C284.7,122.2 281.5,136.3 275.6,149.2 L285.7,149.2 C291.1,136.2 294,122.2 294,107.9 C294,48.6 245.7,0.3 186.4,0.3 C127.1,0.3 78.8,48.6 78.8,107.9 C78.8,122.1 81.6,136.2 87,149.2 L97,149.2 Z" id="Shape" fill="#E0AB05"></path>
                <g id="Group" transform="translate(0.000000, 169.000000)" fill="#08235E">
                    <path d="M40.6,38.9 C42.5,37.5 43.9,35.8 44.9,33.8 C45.9,31.8 46.4,29.6 46.4,27.3 C46.4,25.1 45.9,22.9 45,20.8 C44,18.7 42.7,16.9 41.1,15.3 C39.4,13.7 37.5,12.5 35.3,11.6 C34.5,11.3 33.7,11 32.9,10.8 L32.9,2.2 L26,2.2 L26,10.2 L18,10.2 L18,2.2 L11.1,2.2 L11.1,10.2 L0.4,10.2 L0.4,68.8 L11.1,68.8 L11.1,76.8 L18,76.8 L18,68.8 L25.9,68.8 L25.9,76.8 L32.8,76.8 L32.8,68.6 C34.3,68.4 35.8,68 37.1,67.4 C39.3,66.5 41.2,65.2 42.9,63.7 C44.6,62.2 45.9,60.3 46.8,58.3 C47.8,56.3 48.2,54.1 48.2,51.8 C48.2,49.1 47.5,46.6 46.1,44.3 C44.9,42.2 43,40.3 40.6,38.9 Z M35,27.6 C35,29.5 34.3,31 33,32.3 C31.7,33.6 30.1,34.2 28.2,34.2 L11.9,34.2 L11.9,21 L28.2,21 C30.1,21 31.7,21.6 33,22.9 C34.3,24.2 35,25.8 35,27.6 Z M34.9,56.3 C33.6,57.6 32,58.2 30.1,58.2 L11.9,58.2 L11.9,45 L30.1,45 C32,45 33.6,45.6 34.9,46.9 C36.2,48.2 36.9,49.7 36.9,51.6 C36.9,53.4 36.2,55 34.9,56.3 Z" id="Shape"></path>
                    <path d="M63.5,0.9 C61.2,0.9 59.4,1.6 58.1,3 C56.8,4.4 56.1,6.1 56.1,8.2 C56.1,10.2 56.8,12 58.1,13.4 C59.4,14.8 61.2,15.6 63.5,15.6 C65.8,15.6 67.6,14.9 68.9,13.4 C70.2,12 70.8,10.2 70.8,8.2 C70.8,6.2 70.2,4.5 68.9,3.1 C67.6,1.6 65.8,0.9 63.5,0.9 Z" id="Shape"></path>
                    <rect id="Rectangle-path" x="57.8" y="21" width="11.5" height="47.9"></rect>
                    <path d="M104.3,58.7 C99.9,58.7 96.6,57.4 94.6,54.9 C92.5,52.3 91.5,49.1 91.5,45 L91.5,33.4 L106.3,33.4 L106.3,22.7 L91.5,22.7 L91.5,9.6 L80,9.6 L80,45 C80,48.4 80.6,51.6 81.7,54.5 C82.8,57.5 84.4,60.1 86.5,62.3 C88.6,64.5 91.1,66.2 94,67.5 C96.9,68.8 100.3,69.4 104,69.4 C105.2,69.4 106.1,69.4 106.6,69.3 C107.1,69.2 107.8,69.1 108.7,69 L108.7,58.3 C108.1,58.4 107.4,58.5 106.8,58.6 C106.1,58.6 105.3,58.7 104.3,58.7 Z" id="Shape"></path>
                    <path d="M137.8,20.5 C133.8,20.5 130.3,21.1 127.3,22.4 C124.2,23.7 121.6,25.4 119.5,27.6 C117.4,29.8 115.8,32.4 114.7,35.4 C113.6,38.4 113.1,41.6 113.1,45 C113.1,48.4 113.6,51.6 114.7,54.6 C115.8,57.6 117.4,60.2 119.5,62.4 C121.6,64.6 124.2,66.3 127.3,67.6 C130.4,68.9 133.9,69.5 137.8,69.5 C140.4,69.5 143,69.3 145.6,69 C148.2,68.7 150.5,68.1 152.5,67.4 L152.5,55.6 C150.8,56.5 148.7,57.2 146.1,57.7 C143.5,58.2 140.9,58.4 138.3,58.4 C135.7,58.4 133.5,58 131.7,57.3 C129.9,56.6 128.5,55.6 127.4,54.4 C126.3,53.2 125.5,51.8 125.1,50.1 C124.7,48.5 124.4,46.7 124.4,44.8 C124.4,42.9 124.6,41.2 125.1,39.6 C125.5,38 126.3,36.6 127.4,35.4 C128.5,34.2 129.9,33.3 131.7,32.6 C133.5,31.9 135.6,31.5 138.3,31.5 C140.9,31.5 143.5,31.7 146.1,32.2 C148.7,32.7 150.8,33.4 152.5,34.3 L152.5,22.5 C150.5,21.8 148.1,21.3 145.6,20.9 C143,20.7 140.4,20.5 137.8,20.5 Z" id="Shape"></path>
                    <path d="M200.8,27.7 C198.7,25.5 196.1,23.8 193.1,22.5 C190.1,21.2 186.6,20.6 182.8,20.6 C179,20.6 175.5,21.2 172.5,22.5 C169.5,23.8 166.9,25.5 164.8,27.7 C162.7,29.9 161.1,32.5 160,35.5 C158.9,38.5 158.4,41.6 158.4,45 C158.4,48.4 158.9,51.6 160,54.5 C161.1,57.5 162.7,60.1 164.8,62.3 C166.9,64.5 169.5,66.2 172.5,67.5 C175.5,68.8 179,69.4 182.8,69.4 C186.6,69.4 190.1,68.8 193.1,67.5 C196.1,66.2 198.7,64.5 200.8,62.3 C202.9,60.1 204.5,57.5 205.6,54.5 C206.7,51.5 207.2,48.4 207.2,45 C207.2,41.6 206.7,38.4 205.6,35.5 C204.5,32.5 202.9,29.9 200.8,27.7 Z M195,50.3 C194.5,52 193.8,53.4 192.7,54.7 C191.6,55.9 190.3,56.9 188.7,57.6 C187.1,58.3 185.1,58.7 182.8,58.7 C180.5,58.7 178.5,58.4 176.9,57.6 C175.3,56.9 173.9,55.9 172.9,54.7 C171.8,53.5 171.1,52 170.6,50.3 C170.1,48.6 169.9,46.9 169.9,44.9 C169.9,43 170.1,41.2 170.6,39.5 C171.1,37.8 171.8,36.4 172.9,35.1 C174,33.9 175.3,32.9 176.9,32.2 C178.5,31.5 180.5,31.1 182.8,31.1 C185.1,31.1 187.1,31.5 188.7,32.2 C190.3,32.9 191.7,33.9 192.7,35.1 C193.8,36.3 194.5,37.8 195,39.5 C195.5,41.2 195.7,42.9 195.7,44.9 C195.7,46.9 195.5,48.7 195,50.3 Z" id="Shape"></path>
                    <path d="M262.4,55.2 C262.2,53.1 262.1,51.2 262.1,49.4 C262.1,47.6 262.1,46.2 262,44.9 C261.9,41.2 261.2,37.8 260,34.8 C258.8,31.8 257.2,29.2 255.1,27.1 C253,25 250.5,23.4 247.6,22.2 C244.7,21.1 241.4,20.5 237.7,20.5 C233.8,20.5 230.3,21.1 227.3,22.4 C224.2,23.7 221.6,25.4 219.5,27.6 C217.4,29.8 215.8,32.4 214.7,35.4 C213.6,38.4 213.1,41.5 213.1,44.8 C213.1,48.2 213.7,51.5 214.8,54.4 C215.9,57.4 217.5,60 219.6,62.2 C221.6,64.4 224.1,66.1 227,67.4 C229.9,68.7 233,69.3 236.4,69.3 C240,69.3 243,68.6 245.6,67.2 C248.2,65.8 250.3,63.9 251.9,61.5 C252.4,64.1 253.2,66.5 254.3,68.9 L265.8,68.9 C264.7,66.5 263.9,64.2 263.4,61.9 C262.9,59.5 262.6,57.3 262.4,55.2 Z M247.1,55.4 C244.8,57.6 241.7,58.7 237.8,58.7 C235.4,58.7 233.4,58.4 231.8,57.6 C230.1,56.9 228.8,55.9 227.7,54.7 C226.6,53.5 225.9,52 225.4,50.3 C224.9,48.6 224.7,46.9 224.7,44.9 C224.7,43 224.9,41.2 225.4,39.5 C225.9,37.8 226.6,36.4 227.7,35.1 C228.8,33.9 230.1,32.9 231.8,32.2 C233.5,31.5 235.5,31.1 237.8,31.1 C242.1,31.1 245.3,32.3 247.3,34.8 C249.3,37.3 250.4,40.6 250.6,44.8 C250.5,49.7 249.4,53.2 247.1,55.4 Z" id="Shape"></path>
                    <path d="M295.5,20.5 C291.5,20.5 288,21.1 285,22.4 C281.9,23.7 279.3,25.4 277.2,27.6 C275.1,29.8 273.5,32.4 272.4,35.4 C271.3,38.4 270.8,41.6 270.8,45 C270.8,48.4 271.3,51.6 272.4,54.6 C273.5,57.6 275.1,60.2 277.2,62.4 C279.3,64.6 281.9,66.3 285,67.6 C288.1,68.9 291.6,69.5 295.5,69.5 C298.1,69.5 300.7,69.3 303.3,69 C305.9,68.7 308.2,68.1 310.2,67.4 L310.2,55.6 C308.5,56.5 306.4,57.2 303.8,57.7 C301.2,58.2 298.6,58.4 296,58.4 C293.4,58.4 291.2,58 289.4,57.3 C287.6,56.6 286.2,55.6 285.1,54.4 C284,53.2 283.2,51.8 282.8,50.1 C282.4,48.5 282.1,46.7 282.1,44.8 C282.1,42.9 282.3,41.2 282.8,39.6 C283.2,38 284,36.6 285.1,35.4 C286.2,34.2 287.6,33.3 289.4,32.6 C291.2,31.9 293.3,31.5 296,31.5 C298.7,31.5 301.2,31.7 303.8,32.2 C306.4,32.7 308.5,33.4 310.2,34.3 L310.2,22.5 C308.2,21.8 305.8,21.3 303.3,20.9 C300.7,20.7 298.1,20.5 295.5,20.5 Z" id="Shape"></path>
                    <path d="M365.3,35.4 C364.3,32.4 362.8,29.8 360.9,27.6 C359,25.4 356.7,23.7 354,22.4 C351.3,21.1 348.3,20.5 345.1,20.5 C342.1,20.5 339.5,21 337.2,22.1 C334.9,23.2 333,24.6 331.4,26.5 L331.4,1.9 L319.9,1.9 L319.9,69 L331.4,69 L331.4,44.5 C331.5,40.6 332.6,37.4 334.7,35 C336.8,32.6 339.8,31.4 343.8,31.4 C347.9,31.4 350.8,32.7 352.6,35.2 C354.4,37.7 355.3,41 355.3,45.1 L355.3,69 L366.8,69 L366.8,45 C366.8,41.6 366.3,38.4 365.3,35.4 Z" id="Shape"></path>
                </g>
            </g>
        </g>
    </g>
</svg>