<?xml version="1.0" encoding="UTF-8"?>
<svg width="300px" height="262px" viewBox="0 0 300 262" version="1.1" xmlns="http://www.w3.org/2000/svg" xmlns:xlink="http://www.w3.org/1999/xlink">
    <!-- Generator: Sketch 46.2 (44496) - http://www.bohemiancoding.com/sketch -->
    <title>telegram</title>
    <desc>Created with Sketch.</desc>
    <defs></defs>
    <g id="Page-1" stroke="none" stroke-width="1" fill="none" fill-rule="evenodd">
        <g id="telegram" fill-rule="nonzero" fill="#FFFFFF">
            <path d="M5.299,125.645 L74.425,151.445 L101.181,237.492 C102.893,243.003 109.632,245.04 114.105,241.383 L152.637,209.971 C156.676,206.68 162.429,206.516 166.65,209.58 L236.148,260.037 C240.933,263.515 247.712,260.893 248.912,255.111 L299.823,10.22 C301.133,3.904 294.927,-1.365 288.913,0.961 L5.218,110.402 C-1.783,113.102 -1.722,123.014 5.299,125.645 Z M96.869,137.711 L231.967,54.504 C234.395,53.013 236.893,56.296 234.808,58.23 L123.313,161.87 C119.394,165.518 116.866,170.4 116.15,175.699 L112.352,203.845 C111.849,207.603 106.57,207.976 105.533,204.339 L90.926,153.014 C89.253,147.16 91.691,140.907 96.869,137.711 Z" id="XMLID_497_"></path>
        </g>
    </g>
</svg>